<svg height="453pt" viewBox="0 0 453.3382 453" width="453pt" xmlns="http://www.w3.org/2000/svg"><path d="m3 148.898438v213.515624c0 22.820313 18.496094 41.316407 41.3125 41.316407h238.375c22.816406 0 41.3125-18.5 41.3125-41.316407v-254.996093l-.609375-63.207031c-.214844-22.652344-18.632813-40.90625-41.289063-40.917969l-237.765624-.125c-22.824219-.011719-41.335938 18.488281-41.335938 41.316406zm0 0" fill="#f16c7a"/><path d="m282.6875 406.730469h-238.375c-24.433594 0-44.3125-19.878907-44.3125-44.3125v-213.519531c0-1.65625 1.34375-3 3-3s3 1.34375 3 3v213.519531c0 21.128906 17.1875 38.3125 38.3125 38.3125h238.375c21.125 0 38.3125-17.1875 38.3125-38.3125v-255l-.609375-63.179688c-.199219-20.914062-17.375-37.933593-38.289063-37.945312l-237.765624-.125c-.007813 0-.015626 0-.023438 0-10.230469 0-19.847656 3.980469-27.085938 11.214843-7.238281 7.234376-11.226562 16.859376-11.226562 27.097657v77.917969c0 1.65625-1.34375 3-3 3s-3-1.34375-3-3v-77.914063c0-11.839844 4.613281-22.972656 12.988281-31.34375 8.371094-8.367187 19.492188-12.972656 31.324219-12.972656h.027344l237.765625.125c24.1875.011719 44.054687 19.703125 44.285156 43.886719l.609375 63.210937v255.027344c0 24.433593-19.878906 44.3125-44.3125 44.3125zm0 0" fill="#3a312a"/><path d="m227.742188 449.730469h100.550781c23.050781 0 41.707031-18.65625 41.707031-41.710938v-254.601562l-104.273438-104.269531h-175.019531c-23.050781 0-41.707031 18.65625-41.707031 41.707031v317.164062c0 23.050781 18.65625 41.707031 41.707031 41.707031h137.035157zm0 0" fill="#f7e3c7"/><g fill="#3a312a"><path d="m328.289062 452.730469h-100.546874c-1.65625 0-3-1.34375-3-3s1.34375-3 3-3h100.546874c21.34375 0 38.710938-17.367188 38.710938-38.707031v-253.363282l-102.515625-102.511718h-173.777344c-21.34375 0-38.707031 17.363281-38.707031 38.707031v317.164062c0 21.34375 17.363281 38.710938 38.707031 38.710938h111.550781c1.65625 0 3 1.34375 3 3s-1.34375 3-3 3h-111.550781c-24.652343 0-44.707031-20.058594-44.707031-44.710938v-317.164062c0-24.652344 20.054688-44.707031 44.707031-44.707031h175.019531c.796876 0 1.558594.316406 2.125.878906l104.269532 104.269531c.5625.5625.878906 1.328125.878906 2.121094v254.605469c0 24.648437-20.054688 44.707031-44.710938 44.707031zm0 0"/><path d="m311.011719 183.316406h-203.023438c-1.660156 0-3-1.34375-3-3s1.339844-3 3-3h203.023438c1.65625 0 3 1.34375 3 3s-1.34375 3-3 3zm0 0"/><path d="m311.011719 233.085938h-203.023438c-1.660156 0-3-1.34375-3-3s1.339844-3 3-3h203.023438c1.65625 0 3 1.34375 3 3 0 1.660156-1.34375 3-3 3zm0 0"/><path d="m311.011719 282.859375h-203.023438c-1.660156 0-3-1.34375-3-3 0-1.652344 1.339844-3 3-3h203.023438c1.65625 0 3 1.347656 3 3 0 1.65625-1.34375 3-3 3zm0 0"/><path d="m311.011719 332.636719h-203.023438c-1.660156 0-3-1.34375-3-3s1.339844-3 3-3h203.023438c1.65625 0 3 1.34375 3 3s-1.34375 3-3 3zm0 0"/><path d="m311.011719 382.40625h-203.023438c-1.660156 0-3-1.34375-3-3s1.339844-3 3-3h203.023438c1.65625 0 3 1.34375 3 3s-1.34375 3-3 3zm0 0"/></g><path d="m370 153.417969v.257812h-67.335938c-20.28125 0-36.71875-16.4375-36.71875-36.71875v-67.59375zm0 0" fill="#f7e3c7"/><path d="m370 156.675781h-67.335938c-21.902343 0-39.71875-17.816406-39.71875-39.71875v-67.59375c0-1.210937.730469-2.304687 1.851563-2.773437 1.117187-.460938 2.410156-.207032 3.269531.652344l104.054688 104.054687c.5625.558594.878906 1.324219.878906 2.121094v.257812c0 1.65625-1.34375 3-3 3zm-101.054688-100.070312v60.351562c0 18.59375 15.125 33.71875 33.71875 33.71875h60.355469zm0 0" fill="#3a312a"/><path d="m227.003906 137.25h-108.792968c-5.648438 0-10.226563-4.578125-10.226563-10.222656v-11.863282c0-5.644531 4.578125-10.222656 10.226563-10.222656h108.792968c5.644532 0 10.222656 4.578125 10.222656 10.222656v11.863282c0 5.648437-4.578124 10.222656-10.222656 10.222656zm0 0" fill="#8ac6dd"/><path d="m227.003906 140.25h-108.792968c-7.292969 0-13.226563-5.929688-13.226563-13.222656v-11.863282c0-7.289062 5.933594-13.222656 13.226563-13.222656h108.792968c7.289063 0 13.222656 5.933594 13.222656 13.222656v11.863282c0 7.292968-5.933593 13.222656-13.222656 13.222656zm-108.792968-32.308594c-3.984376 0-7.226563 3.238282-7.226563 7.222656v11.863282c0 3.984375 3.242187 7.222656 7.226563 7.222656h108.792968c3.980469 0 7.222656-3.238281 7.222656-7.222656v-11.863282c0-3.984374-3.242187-7.222656-7.222656-7.222656zm0 0" fill="#3a312a"/><path d="m351.167969 449.480469-99.167969-104.472657h49.609375v-94.519531h99.117187v94.519531h49.609376zm0 0" fill="#8ac6dd"/><path d="m351.167969 452.480469c-.820313 0-1.609375-.335938-2.175781-.933594l-99.167969-104.472656c-.828125-.867188-1.054688-2.144531-.582031-3.246094.472656-1.101563 1.558593-1.816406 2.757812-1.816406h46.609375v-91.523438c0-1.65625 1.34375-3 3-3h99.117187c1.65625 0 3 1.34375 3 3v91.523438h46.613282c1.199218 0 2.28125.714843 2.753906 1.816406s.246094 2.378906-.578125 3.246094l-99.167969 104.472656c-.570312.597656-1.359375.933594-2.179687.933594zm-92.183594-104.472657 92.183594 97.117188 92.183593-97.117188h-42.625c-1.65625 0-3-1.34375-3-3v-91.523437h-93.117187v91.523437c0 1.65625-1.34375 3-3 3zm0 0" fill="#3a312a"/><path d="m422.554688 22.710938s6.816406 25.316406 26.445312 26.492187c0 0-26.199219 9.050781-26.640625 28.402344 0 0-5.160156-27.140625-25.851563-28.117188 0 .003907 24.101563-3.648437 26.046876-26.777343zm0 0" fill="#d7e057"/><path d="m422.355469 80.605469c-1.425781 0-2.667969-1.011719-2.945313-2.433594-.046875-.25-4.988281-24.835937-23.042968-25.6875-1.539063-.070313-2.773438-1.300781-2.855469-2.839844-.078125-1.542969 1.023437-2.890625 2.546875-3.125.882812-.132812 21.789062-3.632812 23.507812-24.0625.125-1.453125 1.269532-2.601562 2.71875-2.734375 1.460938-.121094 2.785156.796875 3.167969 2.203125.0625.234375 6.515625 23.253907 23.726563 24.285157 1.425781.082031 2.59375 1.164062 2.789062 2.582031s-.632812 2.777343-1.988281 3.242187c-.242188.085938-24.238281 8.625-24.621094 25.640625-.039063 1.535157-1.222656 2.792969-2.75 2.921875-.085937.003906-.167969.007813-.253906.007813zm-15.484375-31.457031c7.757812 3.9375 12.464844 11.492187 15.175781 17.753906 4.050781-8.042969 11.882813-13.574219 17.898437-16.855469-8.269531-3.6875-13.566406-11.300781-16.667968-17.445313-3.585938 8.722657-10.542969 13.734376-16.40625 16.546876zm0 0" fill="#3a312a"/><path d="m379.15625 56.671875s4.824219 17.90625 18.707031 18.738281c0 0-18.535156 6.402344-18.84375 20.089844 0 0-3.648437-19.199219-18.285156-19.890625 0 .003906 17.046875-2.578125 18.421875-18.9375zm0 0" fill="#d7e057"/><path d="m379.015625 98.5c-1.425781 0-2.671875-1.015625-2.945313-2.4375-.03125-.164062-3.40625-16.886719-15.476562-17.453125-1.539062-.074219-2.777344-1.300781-2.855469-2.84375-.082031-1.539063 1.023438-2.886719 2.546875-3.121094.589844-.09375 14.726563-2.484375 15.878906-16.226562.125-1.449219 1.273438-2.605469 2.722657-2.734375 1.445312-.125 2.785156.796875 3.164062 2.203125.042969.160156 4.457031 15.839843 15.988281 16.53125 1.429688.082031 2.597657 1.167969 2.796876 2.585937.191406 1.417969-.640626 2.777344-1.992188 3.242188-.164062.058594-16.566406 5.90625-16.828125 17.324218-.035156 1.535157-1.222656 2.792969-2.753906 2.921876-.078125.003906-.164063.007812-.246094.007812zm-9.039063-23.054688c4.214844 2.664063 7.046876 6.789063 8.894532 10.558594 2.753906-4.460937 7.03125-7.742187 10.730468-9.945312-4.574218-2.539063-7.769531-6.699219-9.882812-10.449219-2.347656 4.578125-6.027344 7.753906-9.742188 9.835937zm0 0" fill="#3a312a"/><path d="m379.15625 3.355469s4.824219 17.910156 18.707031 18.742187c0 0-18.535156 6.402344-18.84375 20.089844 0 0-3.648437-19.199219-18.285156-19.886719 0 0 17.046875-2.585937 18.421875-18.945312zm0 0" fill="#d7e057"/><path d="m379.015625 45.1875c-1.425781 0-2.671875-1.015625-2.945313-2.441406-.03125-.164063-3.40625-16.882813-15.476562-17.449219-1.539062-.074219-2.777344-1.300781-2.855469-2.84375-.082031-1.539063 1.023438-2.886719 2.546875-3.121094.589844-.09375 14.726563-2.488281 15.878906-16.226562.125-1.453125 1.273438-2.605469 2.722657-2.738281 1.445312-.121094 2.785156.800781 3.164062 2.207031.042969.15625 4.457031 15.839843 15.988281 16.527343 1.429688.085938 2.597657 1.167969 2.796876 2.585938.191406 1.417969-.640626 2.78125-1.992188 3.246094-.164062.054687-16.566406 5.90625-16.828125 17.324218-.035156 1.535157-1.222656 2.792969-2.753906 2.921876-.078125.003906-.164063.007812-.246094.007812zm-9.039063-23.054688c4.214844 2.664063 7.046876 6.789063 8.894532 10.558594 2.753906-4.464844 7.03125-7.746094 10.730468-9.945312-4.574218-2.539063-7.769531-6.699219-9.882812-10.449219-2.347656 4.578125-6.027344 7.753906-9.742188 9.835937zm0 0" fill="#3a312a"/><path d="m320.921875 100.113281-30.28125-30.300781-.242187-25.578125c-.199219-20.902344-17.378907-37.921875-38.296876-37.941406h30c20.917969.019531 38.097657 17.039062 38.296876 37.941406zm0 0" fill="#d34e5c"/><path d="m337 156.671875v90.820313h30v-90.820313zm0 0" fill="#decaad"/></svg>