<?xml version="1.0" encoding="utf-8"?>
<!-- Generator: Adobe Illustrator 25.1.0, SVG Export Plug-In . SVG Version: 6.00 Build 0)  -->
<svg version="1.1" id="Layer_1" xmlns="http://www.w3.org/2000/svg" xmlns:xlink="http://www.w3.org/1999/xlink" x="0px" y="0px"
	 viewBox="0 0 512 512" style="enable-background:new 0 0 512 512;" xml:space="preserve">
<style type="text/css">
	.st0{fill:#FFFFFF;}
	.st1{fill:#B2B2B2;}
	.st2{fill:#FF9AA4;}
</style>
<path class="st0" d="M358.5,169.5H153.5c-12.3,0-22.3,10-22.3,22.3v128.3c0,12.3,10,22.3,22.3,22.3h205.1c12.3,0,22.3-10,22.3-22.3
	V191.8C380.9,179.6,370.8,169.5,358.5,169.5z"/>
<g>
	<polygon class="st1" points="255.1,289.8 162.1,340.1 162.3,342.5 256.2,291.9 	"/>
	<path class="st1" d="M360.4,190.9l-59.6,45.9l-44.7,55.1l90.9,50.6h11.5c8.2,0,15.5-4.5,19.3-11.2l-7.7-51.1L360.4,190.9z"/>
</g>
<path class="st2" d="M256.2,291.9l124.7-96.5v-3.5c0-12.3-10-22.3-22.3-22.3h-5l-94.4,80.6l-98.3-80.6h-7.4
	c-12.3,0-22.3,10-22.3,22.3v128.3c0,12.3,10,22.3,22.3,22.3h8.8V217.3L256.2,291.9z"/>
<path class="st2" d="M380.9,320.2V195.3l-33.8,26.2v121h11.5C370.8,342.5,380.9,332.4,380.9,320.2z"/>
</svg>
